<svg id="Layer_1" data-name="Layer 1" xmlns="http://www.w3.org/2000/svg" viewBox="0 0 116.67 131.29"><defs><style>.cls-1{fill:#86239b;stroke:#231f20;stroke-miterlimit:10;}</style></defs><title>crosses</title><path class="cls-1" d="M81.75,77.29c22.7,26.7,48.25,56.83,46.08,58.42l-7.37,2.58c-3.6,2.64-8.73.72-10.3-4.22-4-12.68-18.55-31.14-34.7-48.88-14.27,18.2-27,36.65-30.85,48.88-1.57,4.94-6.7,6.86-10.3,4.22L16.72,123.5C14.63,122,41.66,98.11,66.56,75.65,44.2,52.18,21.82,32.25,21.82,32.25c-2.63-3.6,4.7-14.65,8.3-17.29a8.12,8.12,0,0,1,11.33,1.75s4.67,16.66,7.87,21.37c3.08,4.52,13.12,16.45,25,30.5C89.28,55,102.11,43,105.45,38.08c3.2-4.71,7.87-21.37,7.87-21.37,2.64-3.6,11-9.5,14.64-6.87l3.15,3.56c3.6,2.64-2.07,9.29-4.71,12.89C126.4,26.29,103.5,50.46,81.75,77.29Z" transform="translate(-16.11 -8.68)"/></svg>